<?xml version="1.0" encoding="UTF-8" standalone="no"?>
<!-- Created with Inkscape (http://www.inkscape.org/) -->
<svg xmlns:dc="http://purl.org/dc/elements/1.1/" xmlns:cc="http://creativecommons.org/ns#" xmlns:rdf="http://www.w3.org/1999/02/22-rdf-syntax-ns#" xmlns:svg="http://www.w3.org/2000/svg" xmlns="http://www.w3.org/2000/svg" xmlns:sodipodi="http://sodipodi.sourceforge.net/DTD/sodipodi-0.dtd" xmlns:inkscape="http://www.inkscape.org/namespaces/inkscape" viewBox="0 0 500.00001 260.00002" id="svg4714" version="1.1" inkscape:version="0.91pre3 r13670" sodipodi:docname="Dog_Bone.svg">
  <defs id="defs4716"/>
  <sodipodi:namedview id="base" pagecolor="#ffffff" bordercolor="#666666" borderopacity="1.0" inkscape:pageopacity="0.0" inkscape:pageshadow="2" inkscape:zoom="0.35" inkscape:cx="78.602285" inkscape:cy="-114.74693" inkscape:document-units="px" inkscape:current-layer="layer1" showgrid="false" showguides="true" fit-margin-top="0" fit-margin-left="0" fit-margin-right="0" fit-margin-bottom="0" inkscape:window-width="1024" inkscape:window-height="706" inkscape:window-x="-8" inkscape:window-y="-8" inkscape:window-maximized="1"/>
  <metadata id="metadata4719">
    <rdf:RDF>
      <cc:Work rdf:about="">
        <dc:format>image/svg+xml</dc:format>
        <dc:type rdf:resource="http://purl.org/dc/dcmitype/StillImage"/>
        <dc:title/>
      </cc:Work>
    </rdf:RDF>
  </metadata>
  <g inkscape:label="Layer 1" inkscape:groupmode="layer" id="layer1" transform="translate(-128.35708,-47.849748)">
    <g id="g5802" transform="matrix(1.0901471,0,0,1.0984494,798.2525,697.80737)">
      <g transform="matrix(2.9474954,0,0,2.9474954,-667.12894,-731.83158)" id="g5795">
        <path id="path5640" d="m 45.961471,48.202998 c -12.22905,1.47e-4 -22.142577,9.514053 -22.142577,21.249997 1.382527,7.95451 8.417537,15.51341 11.414067,18.58203 -3.17279,6.055817 -11.03231,11.066317 -11.414067,18.560545 0,11.73595 9.913527,21.24985 22.142577,21.25 12.22982,8.9e-4 22.14453,-9.51332 22.14453,-21.25 l 30.535159,0 30.53515,0 c 0,11.73668 9.91472,21.25089 22.14453,21.25 12.22906,-1.5e-4 22.14258,-9.51405 22.14258,-21.25 -0.38176,-7.494228 -8.24128,-12.504728 -11.41406,-18.560545 2.99652,-3.06862 10.03153,-10.62752 11.41406,-18.58203 0,-11.735944 -9.91352,-21.24985 -22.14258,-21.249997 -12.22981,-8.87e-4 -22.14453,9.513322 -22.14453,21.249997 l -30.53515,0 -30.535159,0 c 0,-11.736675 -9.91471,-21.250884 -22.14453,-21.249997 z" style="opacity:1;fill:#f9f9f9;fill-opacity:1;stroke:none;stroke-width:3;stroke-miterlimit:4;stroke-dasharray:none;stroke-dashoffset:0;stroke-opacity:1" inkscape:connector-curvature="0"/>
        <path style="opacity:1;fill:#f2f2f2;fill-opacity:1;stroke:none;stroke-width:3;stroke-miterlimit:4;stroke-dasharray:none;stroke-dashoffset:0;stroke-opacity:1" d="m 44.894531,50.230469 c -13.232513,-0.247286 -24.652325,16.313902 -15.537109,27.40039 2.330467,3.704599 5.27713,6.970505 8.333984,10.083985 -3.77728,8.266704 -15.274177,14.049526 -10.972656,24.587886 4.431848,15.35586 27.420746,18.27405 35.972656,5.01758 2.683352,-3.65509 3.627441,-8.26004 3.462891,-12.72461 21.65625,0 43.312503,0 64.968753,0 -1.77038,14.9894 15.97434,26.05345 28.96093,19.33594 9.70126,-3.87939 15.58647,-17.99138 7.15235,-25.914062 -2.3583,-3.426896 -7.45452,-7.106681 -6.95554,-11.027589 6.32958,-6.640221 14.7509,-16.126629 9.22702,-25.818114 -6.58095,-14.451255 -29.77702,-14.492264 -36.37109,-0.01367 -2.54055,5.583872 -0.29777,13.002864 -8.96094,10.294922 -19.34049,0 -38.680988,0 -58.021483,0 C 67.239502,59.518806 56.677964,49.380889 44.894531,50.230469 Z" id="path5791" inkscape:connector-curvature="0"/>
        <path inkscape:connector-curvature="0" style="opacity:1;fill:#ffeeaa;fill-opacity:1;stroke:none;stroke-width:3;stroke-miterlimit:4;stroke-dasharray:none;stroke-dashoffset:0;stroke-opacity:1" d="m 39.998047,47.541016 c -12.229054,1.47e-4 -22.142578,9.514053 -22.142578,21.25 1.382527,7.954502 8.417541,15.513403 11.414062,18.582031 -3.172786,6.055814 -11.032302,11.066318 -11.414062,18.560543 0,11.73595 9.913524,21.24985 22.142578,21.25 12.229816,8.9e-4 22.144531,-9.51332 22.144531,-21.25 l 30.535156,0 30.535156,0 c 0,11.73668 9.91472,21.25089 22.14453,21.25 12.22906,-1.5e-4 22.14258,-9.51405 22.14258,-21.25 -0.38176,-7.494225 -8.24128,-12.504729 -11.41406,-18.560543 2.99652,-3.068628 10.03153,-10.627529 11.41406,-18.582031 0,-11.735947 -9.91352,-21.249853 -22.14258,-21.25 -12.22981,-8.87e-4 -22.14453,9.513322 -22.14453,21.25 l -30.535156,0 -30.535156,0 c 0,-11.736678 -9.914715,-21.250887 -22.144531,-21.25 z" id="path5422"/>
        <path style="opacity:1;fill:#fff0b2;fill-opacity:1;stroke:none;stroke-width:3;stroke-miterlimit:4;stroke-dasharray:none;stroke-dashoffset:0;stroke-opacity:1" d="M 39.539062,51.328125 C 27.349607,50.372487 16.894998,66.588602 25.349609,76.478516 c 2.942995,3.893683 6.62826,7.904741 8.603516,12.160156 -5.720624,6.326434 -14.669078,14.373218 -10.851563,23.892578 5.379616,13.89729 29.44649,14.18286 33.81836,-0.61719 -0.0692,-4.95198 2.961488,-11.88326 9.054608,-9.93854 20.285739,0.40007 41.03191,-1.2976 60.88289,1.32721 -2.49456,16.13345 21.50359,27.05988 32.02344,14.54493 7.34545,-6.65519 4.33462,-19.372836 -3.71875,-24.056644 -4.27158,-5.773332 -0.33723,-13.110859 4.83789,-16.544922 7.08241,-9.205809 0.74416,-24.628401 -11.04883,-25.4375 -10.4083,-2.064813 -22.43377,6.12013 -21.79687,17.246094 -3.08647,6.773649 -11.45655,2.790937 -16.95312,3.651109 -17.234571,0.02368 -34.622872,0.864393 -51.697274,-1.127672 0.952388,-10.50184 -8.37263,-20.612452 -18.964844,-20.25 z" id="path5574" inkscape:connector-curvature="0"/>
        <path style="opacity:1;fill:#fff0c2;fill-opacity:1;stroke:none;stroke-width:3;stroke-miterlimit:4;stroke-dasharray:none;stroke-dashoffset:0;stroke-opacity:1" d="m 38.992188,55.167969 c -10.499749,-0.424802 -17.284604,15.008352 -8.398438,21.65039 3.877124,4.064017 9.534011,11.174735 4.458878,16.438941 -5.637209,4.992806 -12.536042,14.72912 -5.900284,21.48684 6.485945,6.79479 21.292331,5.67082 23.691406,-4.41602 0.07554,-7.94859 8.146819,-14.988892 16.037075,-12.323725 20.836422,0.180401 41.816115,-1.278713 62.517615,1.808105 -6.15175,13.95016 15.68695,26.24754 25.02734,15.07812 5.90989,-6.73386 0.56302,-16.189124 -5.5918,-20.498042 -4.66631,-8.24873 2.28057,-16.640428 7.57422,-22.429687 3.41796,-9.349857 -7.0559,-19.966006 -16.5,-16.050782 -6.86546,1.577429 -11.66436,8.474258 -11.09179,15.259766 -5.32182,8.659805 -16.56031,5.067327 -24.80635,5.448162 C 88.804611,76.90586 71.42016,77.751465 54.400391,74.621094 56.619156,65.061288 48.987273,54.881693 38.992188,55.167969 Z" id="path5630" inkscape:connector-curvature="0"/>
      </g>
    </g>
  </g>
</svg>
